<svg width="359" height="355" xmlns="http://www.w3.org/2000/svg" xmlns:xlink="http://www.w3.org/1999/xlink" xml:space="preserve" overflow="hidden"><defs><clipPath id="clip0"><rect x="373" y="345" width="359" height="355"/></clipPath><clipPath id="clip1"><rect x="374" y="346" width="357" height="354"/></clipPath><clipPath id="clip2"><rect x="374" y="346" width="357" height="354"/></clipPath><clipPath id="clip3"><rect x="374" y="346" width="357" height="354"/></clipPath><clipPath id="clip4"><rect x="374" y="346" width="357" height="354"/></clipPath><clipPath id="clip5"><rect x="375" y="346" width="356" height="354"/></clipPath><clipPath id="clip6"><rect x="375" y="346" width="356" height="354"/></clipPath></defs><g clip-path="url(#clip0)" transform="translate(-373 -345)"><g clip-path="url(#clip1)"><g clip-path="url(#clip2)"><g clip-path="url(#clip3)"><g clip-path="url(#clip4)"><g clip-path="url(#clip5)"><g clip-path="url(#clip6)"><path d="M206.383 29.666C255.154 29.666 299.389 49.2728 331.562 80.9423 363.239 113.115 382.837 157.366 382.837 206.127 382.837 254.898 363.239 299.132 331.562 330.81 299.389 362.983 255.145 382.598 206.383 382.598 157.614 382.598 113.379 362.983 81.1979 330.81 49.0255 299.124 29.4186 254.889 29.4186 206.127 29.4186 157.366 49.0255 113.123 81.1979 80.9423 113.37 49.2728 157.614 29.666 206.383 29.666ZM134.486 189.036C134.486 206.631 146.549 220.697 162.635 224.226 160.12 224.728 157.111 225.224 153.087 225.224 151.578 225.224 149.566 224.72 147.06 224.226 151.075 238.3 164.152 248.862 180.238 249.366 167.673 259.416 152.584 264.438 135.995 264.438L127.453 264.438C143.036 274.505 162.14 280.524 182.25 280.524 214.917 280.524 241.071 266.952 258.162 247.353 275.247 227.739 283.797 202.608 283.797 178.474L283.797 173.947C291.333 168.423 297.369 161.885 301.895 155.346 295.357 157.861 288.819 159.37 281.283 160.879 288.819 156.352 293.857 149.319 297.369 141.272 289.832 144.792 282.296 148.313 273.747 149.814 267.711 142.278 258.658 138.254 248.112 138.254 228.497 138.254 212.411 154.34 212.411 174.458 212.411 176.47 212.913 178.985 213.417 182.506 183.248 180.996 157.605 166.914 139.507 144.801 136.498 150.333 134.981 156.36 134.981 162.899 134.981 176.47 140.01 186.026 150.572 192.566 144.545 192.566 139.013 191.047 134.486 188.54L134.486 189.036Z" fill="#000000" fill-rule="nonzero" fill-opacity="1" transform="matrix(1.00183 0 0 1 346.814 316.577)"/></g></g></g></g></g></g></g></svg>